<svg xmlns="http://www.w3.org/2000/svg" class="rounded-xl" viewBox="0 0 982.471111111111 552.64"><rect width="982.471111111111" height="552.64" fill="#ffffff" id="bg" class="bg"/><g><g transform="translate(5.26,&#10;                                5.26) rotate(0, 29.82501587301587, 29.82501587301587)"><svg xmlns="http://www.w3.org/2000/svg" id="Layer_1" data-name="Layer 1" viewBox="0 0 100 100" width="59.65003174603174" height="59.65003174603174"><path d="M50,100a50,50,0,1,1,50-50v50Z" fill="#5E5C57"/></svg></g><g transform="translate(75.44,&#10;                                5.26) rotate(180, 29.82501587301587, 29.82501587301587)"><svg xmlns="http://www.w3.org/2000/svg" id="Layer_1" data-name="Layer 1" viewBox="0 0 100 100" width="59.65003174603174" height="59.65003174603174"><path d="M50,100a50,50,0,1,1,50-50v50Z" fill="#5E5C57"/></svg></g><g transform="translate(5.26,&#10;                                75.44) rotate(180, 29.82501587301587, 29.82501587301587)"><svg xmlns="http://www.w3.org/2000/svg" id="Layer_1" data-name="Layer 1" viewBox="0 0 100 100" width="59.65003174603174" height="59.65003174603174"><path d="M100,100A50,50,0,0,0,0,100Z" fill="#F2001C"/></svg></g><g transform="translate(145.62,&#10;                                5.26) rotate(0, 29.82501587301587, 29.82501587301587)"><svg xmlns="http://www.w3.org/2000/svg" id="Layer_1" data-name="Layer 1" viewBox="0 0 100 100" width="59.65003174603174" height="59.65003174603174"><path d="M50,100h0A50,50,0,0,1,0,50V0H100V50A50,50,0,0,1,50,100Z" fill="#941A1A"/></svg></g><g transform="translate(215.79,&#10;                                5.26) rotate(0, 29.82501587301587, 29.82501587301587)"><svg xmlns="http://www.w3.org/2000/svg" id="Layer_1" data-name="Layer 1" viewBox="0 0 100 100" width="59.65003174603174" height="59.65003174603174"><path d="M50,100a50,50,0,1,1,50-50v50Z" fill="#5E5C57"/></svg></g><g transform="translate(145.62,&#10;                                75.44) rotate(180, 29.82501587301587, 29.82501587301587)"><svg xmlns="http://www.w3.org/2000/svg" id="Layer_1" data-name="Layer 1" viewBox="0 0 100 100" width="59.65003174603174" height="59.65003174603174"><path d="M50,100h0A50,50,0,0,1,0,50V0H100V50A50,50,0,0,1,50,100Z" fill="#941A1A"/></svg></g><g transform="translate(285.97,&#10;                                5.26) rotate(180, 29.82501587301587, 29.82501587301587)"><svg xmlns="http://www.w3.org/2000/svg" id="Layer_1" data-name="Layer 1" viewBox="0 0 100 100" width="59.65003174603174" height="59.65003174603174"><path d="M100,100A50,50,0,0,0,0,100Z" fill="#F2001C"/></svg></g><g transform="translate(356.15,&#10;                                75.44) rotate(0, 29.82501587301587, 29.82501587301587)"><svg xmlns="http://www.w3.org/2000/svg" id="Layer_1" data-name="Layer 1" viewBox="0 0 100 100" width="59.65003174603174" height="59.65003174603174"><path d="M50,100a50,50,0,1,1,50-50v50Z" fill="#5E5C57"/></svg></g><g transform="translate(426.32,&#10;                                5.26) rotate(0, 29.82501587301587, 29.82501587301587)"><svg xmlns="http://www.w3.org/2000/svg" id="Layer_1" data-name="Layer 1" viewBox="0 0 100 100" width="59.65003174603174" height="59.65003174603174"><circle cx="50" cy="50" r="50" fill="#941A1A"/></svg></g><g transform="translate(496.50,&#10;                                5.26) rotate(180, 29.82501587301587, 29.82501587301587)"><svg xmlns="http://www.w3.org/2000/svg" id="Layer_1" data-name="Layer 1" viewBox="0 0 100 100" width="59.65003174603174" height="59.65003174603174"><path d="M50,100a50,50,0,1,1,50-50v50Z" fill="#5E5C57"/></svg></g><g transform="translate(426.32,&#10;                                75.44) rotate(0, 29.82501587301587, 29.82501587301587)"><svg xmlns="http://www.w3.org/2000/svg" id="Layer_1" data-name="Layer 1" viewBox="0 0 100 100" width="59.65003174603174" height="59.65003174603174"><path d="M100,100A50,50,0,0,0,0,100Z" fill="#F2001C"/></svg></g><g transform="translate(496.50,&#10;                                75.44) rotate(180, 29.82501587301587, 29.82501587301587)"><svg xmlns="http://www.w3.org/2000/svg" id="Layer_1" data-name="Layer 1" viewBox="0 0 100 100" width="59.65003174603174" height="59.65003174603174"><path d="M50,100a50,50,0,1,1,50-50v50Z" fill="#5E5C57"/></svg></g><g transform="translate(566.68,&#10;                                5.26) rotate(270, 29.82501587301587, 29.82501587301587)"><svg xmlns="http://www.w3.org/2000/svg" id="Layer_1" data-name="Layer 1" viewBox="0 0 100 100" width="59.65003174603174" height="59.65003174603174"><circle cx="50" cy="50" r="50" fill="#941A1A"/></svg></g><g transform="translate(636.85,&#10;                                5.26) rotate(0, 29.82501587301587, 29.82501587301587)"><svg xmlns="http://www.w3.org/2000/svg" id="Layer_1" data-name="Layer 1" viewBox="0 0 100 100" width="59.65003174603174" height="59.65003174603174"><path d="M50,100a50,50,0,1,1,50-50v50Z" fill="#5E5C57"/></svg></g><g transform="translate(566.68,&#10;                                75.44) rotate(0, 29.82501587301587, 29.82501587301587)"><svg xmlns="http://www.w3.org/2000/svg" id="Layer_1" data-name="Layer 1" viewBox="0 0 100 100" width="59.65003174603174" height="59.65003174603174"><path d="M50,100h0A50,50,0,0,1,0,50V0H100V50A50,50,0,0,1,50,100Z" fill="#941A1A"/></svg></g><g transform="translate(707.03,&#10;                                5.26) rotate(0, 29.82501587301587, 29.82501587301587)"><svg xmlns="http://www.w3.org/2000/svg" id="Layer_1" data-name="Layer 1" viewBox="0 0 100 100" width="59.65003174603174" height="59.65003174603174"><path d="M100,100A50,50,0,0,0,0,100Z" fill="#F2001C"/></svg></g><g transform="translate(777.20,&#10;                                5.26) rotate(180, 29.82501587301587, 29.82501587301587)"><svg xmlns="http://www.w3.org/2000/svg" id="Layer_1" data-name="Layer 1" viewBox="0 0 100 100" width="59.65003174603174" height="59.65003174603174"><path d="M100,100A50,50,0,0,0,0,100Z" fill="#F2001C"/></svg></g><g transform="translate(707.03,&#10;                                75.44) rotate(0, 29.82501587301587, 29.82501587301587)"><svg xmlns="http://www.w3.org/2000/svg" id="Layer_1" data-name="Layer 1" viewBox="0 0 100 100" width="59.65003174603174" height="59.65003174603174"><path d="M100,100A50,50,0,0,0,0,100Z" fill="#F2001C"/></svg></g><g transform="translate(847.38,&#10;                                5.26) rotate(270, 29.82501587301587, 29.82501587301587)"><svg xmlns="http://www.w3.org/2000/svg" id="Layer_1" data-name="Layer 1" viewBox="0 0 100 100" width="59.65003174603174" height="59.65003174603174"><circle cx="50" cy="50" r="50" fill="#941A1A"/></svg></g><g transform="translate(917.56,&#10;                                5.26) rotate(180, 29.82501587301587, 29.82501587301587)"><svg xmlns="http://www.w3.org/2000/svg" id="Layer_1" data-name="Layer 1" viewBox="0 0 100 100" width="59.65003174603174" height="59.65003174603174"><path d="M50,100a50,50,0,1,1,50-50v50Z" fill="#5E5C57"/></svg></g><g transform="translate(847.38,&#10;                                75.44) rotate(180, 29.82501587301587, 29.82501587301587)"><svg xmlns="http://www.w3.org/2000/svg" id="Layer_1" data-name="Layer 1" viewBox="0 0 100 100" width="59.65003174603174" height="59.65003174603174"><circle cx="50" cy="50" r="50" fill="#941A1A"/></svg></g></g><g><g transform="translate(5.26,&#10;                                145.62) rotate(180, 29.82501587301587, 29.82501587301587)"><svg xmlns="http://www.w3.org/2000/svg" id="Layer_1" data-name="Layer 1" viewBox="0 0 100 100" width="59.65003174603174" height="59.65003174603174"><circle cx="50" cy="50" r="50" fill="#941A1A"/></svg></g><g transform="translate(75.44,&#10;                                145.62) rotate(90, 29.82501587301587, 29.82501587301587)"><svg xmlns="http://www.w3.org/2000/svg" id="Layer_1" data-name="Layer 1" viewBox="0 0 100 100" width="59.65003174603174" height="59.65003174603174"><path d="M50,100a50,50,0,1,1,50-50v50Z" fill="#5E5C57"/></svg></g><g transform="translate(5.26,&#10;                                215.79) rotate(270, 29.82501587301587, 29.82501587301587)"><svg xmlns="http://www.w3.org/2000/svg" id="Layer_1" data-name="Layer 1" viewBox="0 0 100 100" width="59.65003174603174" height="59.65003174603174"><path d="M50,100h0A50,50,0,0,1,0,50V0H100V50A50,50,0,0,1,50,100Z" fill="#941A1A"/></svg></g><g transform="translate(145.62,&#10;                                145.62) rotate(270, 29.82501587301587, 29.82501587301587)"><svg xmlns="http://www.w3.org/2000/svg" id="Layer_1" data-name="Layer 1" viewBox="0 0 100 100" width="59.65003174603174" height="59.65003174603174"><circle cx="50" cy="50" r="50" fill="#941A1A"/></svg></g><g transform="translate(215.79,&#10;                                145.62) rotate(270, 29.82501587301587, 29.82501587301587)"><svg xmlns="http://www.w3.org/2000/svg" id="Layer_1" data-name="Layer 1" viewBox="0 0 100 100" width="59.65003174603174" height="59.65003174603174"><path d="M50,100a50,50,0,1,1,50-50v50Z" fill="#5E5C57"/></svg></g><g transform="translate(145.62,&#10;                                215.79) rotate(180, 29.82501587301587, 29.82501587301587)"><svg xmlns="http://www.w3.org/2000/svg" id="Layer_1" data-name="Layer 1" viewBox="0 0 100 100" width="59.65003174603174" height="59.65003174603174"><path d="M100,100A50,50,0,0,0,0,100Z" fill="#F2001C"/></svg></g><g transform="translate(215.79,&#10;                                215.79) rotate(270, 29.82501587301587, 29.82501587301587)"><svg xmlns="http://www.w3.org/2000/svg" id="Layer_1" data-name="Layer 1" viewBox="0 0 100 100" width="59.65003174603174" height="59.65003174603174"><path d="M50,100a50,50,0,1,1,50-50v50Z" fill="#5E5C57"/></svg></g><g transform="translate(285.97,&#10;                                145.62) rotate(90, 29.82501587301587, 29.82501587301587)"><svg xmlns="http://www.w3.org/2000/svg" id="Layer_1" data-name="Layer 1" viewBox="0 0 100 100" width="59.65003174603174" height="59.65003174603174"><path d="M50,100h0A50,50,0,0,1,0,50V0H100V50A50,50,0,0,1,50,100Z" fill="#941A1A"/></svg></g><g transform="translate(285.97,&#10;                                215.79) rotate(90, 29.82501587301587, 29.82501587301587)"><svg xmlns="http://www.w3.org/2000/svg" id="Layer_1" data-name="Layer 1" viewBox="0 0 100 100" width="59.65003174603174" height="59.65003174603174"><circle cx="50" cy="50" r="50" fill="#941A1A"/></svg></g><g transform="translate(426.32,&#10;                                145.62) rotate(0, 29.82501587301587, 29.82501587301587)"><svg xmlns="http://www.w3.org/2000/svg" id="Layer_1" data-name="Layer 1" viewBox="0 0 100 100" width="59.65003174603174" height="59.65003174603174"><path d="M50,100a50,50,0,1,1,50-50v50Z" fill="#5E5C57"/></svg></g><g transform="translate(426.32,&#10;                                215.79) rotate(0, 29.82501587301587, 29.82501587301587)"><svg xmlns="http://www.w3.org/2000/svg" id="Layer_1" data-name="Layer 1" viewBox="0 0 100 100" width="59.65003174603174" height="59.65003174603174"><path d="M100,100A50,50,0,0,0,0,100Z" fill="#F2001C"/></svg></g><g transform="translate(496.50,&#10;                                215.79) rotate(90, 29.82501587301587, 29.82501587301587)"><svg xmlns="http://www.w3.org/2000/svg" id="Layer_1" data-name="Layer 1" viewBox="0 0 100 100" width="59.65003174603174" height="59.65003174603174"><path d="M50,100a50,50,0,1,1,50-50v50Z" fill="#5E5C57"/></svg></g><g transform="translate(636.85,&#10;                                145.62) rotate(0, 29.82501587301587, 29.82501587301587)"><svg xmlns="http://www.w3.org/2000/svg" id="Layer_1" data-name="Layer 1" viewBox="0 0 100 100" width="59.65003174603174" height="59.65003174603174"><path d="M50,100a50,50,0,1,1,50-50v50Z" fill="#5E5C57"/></svg></g><g transform="translate(566.68,&#10;                                215.79) rotate(0, 29.82501587301587, 29.82501587301587)"><svg xmlns="http://www.w3.org/2000/svg" id="Layer_1" data-name="Layer 1" viewBox="0 0 100 100" width="59.65003174603174" height="59.65003174603174"><path d="M100,100A50,50,0,0,0,0,100Z" fill="#F2001C"/></svg></g><g transform="translate(636.85,&#10;                                215.79) rotate(0, 29.82501587301587, 29.82501587301587)"><svg xmlns="http://www.w3.org/2000/svg" id="Layer_1" data-name="Layer 1" viewBox="0 0 100 100" width="59.65003174603174" height="59.65003174603174"><path d="M50,100h0A50,50,0,0,1,0,50V0H100V50A50,50,0,0,1,50,100Z" fill="#941A1A"/></svg></g><g transform="translate(707.03,&#10;                                145.62) rotate(270, 29.82501587301587, 29.82501587301587)"><svg xmlns="http://www.w3.org/2000/svg" id="Layer_1" data-name="Layer 1" viewBox="0 0 100 100" width="59.65003174603174" height="59.65003174603174"><path d="M50,100h0A50,50,0,0,1,0,50V0H100V50A50,50,0,0,1,50,100Z" fill="#941A1A"/></svg></g><g transform="translate(707.03,&#10;                                215.79) rotate(270, 29.82501587301587, 29.82501587301587)"><svg xmlns="http://www.w3.org/2000/svg" id="Layer_1" data-name="Layer 1" viewBox="0 0 100 100" width="59.65003174603174" height="59.65003174603174"><path d="M100,100A50,50,0,0,0,0,100Z" fill="#F2001C"/></svg></g><g transform="translate(917.56,&#10;                                215.79) rotate(270, 29.82501587301587, 29.82501587301587)"><svg xmlns="http://www.w3.org/2000/svg" id="Layer_1" data-name="Layer 1" viewBox="0 0 100 100" width="59.65003174603174" height="59.65003174603174"><path d="M50,100a50,50,0,1,1,50-50v50Z" fill="#5E5C57"/></svg></g></g><g><g transform="translate(5.26,&#10;                                285.97) rotate(0, 29.82501587301587, 29.82501587301587)"><svg xmlns="http://www.w3.org/2000/svg" id="Layer_1" data-name="Layer 1" viewBox="0 0 100 100" width="59.65003174603174" height="59.65003174603174"><circle cx="50" cy="50" r="50" fill="#941A1A"/></svg></g><g transform="translate(5.26,&#10;                                356.15) rotate(0, 29.82501587301587, 29.82501587301587)"><svg xmlns="http://www.w3.org/2000/svg" id="Layer_1" data-name="Layer 1" viewBox="0 0 100 100" width="59.65003174603174" height="59.65003174603174"><path d="M50,100h0A50,50,0,0,1,0,50V0H100V50A50,50,0,0,1,50,100Z" fill="#941A1A"/></svg></g><g transform="translate(75.44,&#10;                                356.15) rotate(270, 29.82501587301587, 29.82501587301587)"><svg xmlns="http://www.w3.org/2000/svg" id="Layer_1" data-name="Layer 1" viewBox="0 0 100 100" width="59.65003174603174" height="59.65003174603174"><path d="M50,100a50,50,0,1,1,50-50v50Z" fill="#5E5C57"/></svg></g><g transform="translate(145.62,&#10;                                285.97) rotate(0, 29.82501587301587, 29.82501587301587)"><svg xmlns="http://www.w3.org/2000/svg" id="Layer_1" data-name="Layer 1" viewBox="0 0 100 100" width="59.65003174603174" height="59.65003174603174"><path d="M50,100h0A50,50,0,0,1,0,50V0H100V50A50,50,0,0,1,50,100Z" fill="#941A1A"/></svg></g><g transform="translate(215.79,&#10;                                285.97) rotate(90, 29.82501587301587, 29.82501587301587)"><svg xmlns="http://www.w3.org/2000/svg" id="Layer_1" data-name="Layer 1" viewBox="0 0 100 100" width="59.65003174603174" height="59.65003174603174"><path d="M100,100A50,50,0,0,0,0,100Z" fill="#F2001C"/></svg></g><g transform="translate(285.97,&#10;                                285.97) rotate(180, 29.82501587301587, 29.82501587301587)"><svg xmlns="http://www.w3.org/2000/svg" id="Layer_1" data-name="Layer 1" viewBox="0 0 100 100" width="59.65003174603174" height="59.65003174603174"><circle cx="50" cy="50" r="50" fill="#941A1A"/></svg></g><g transform="translate(356.15,&#10;                                285.97) rotate(270, 29.82501587301587, 29.82501587301587)"><svg xmlns="http://www.w3.org/2000/svg" id="Layer_1" data-name="Layer 1" viewBox="0 0 100 100" width="59.65003174603174" height="59.65003174603174"><path d="M50,100a50,50,0,1,1,50-50v50Z" fill="#5E5C57"/></svg></g><g transform="translate(285.97,&#10;                                356.15) rotate(180, 29.82501587301587, 29.82501587301587)"><svg xmlns="http://www.w3.org/2000/svg" id="Layer_1" data-name="Layer 1" viewBox="0 0 100 100" width="59.65003174603174" height="59.65003174603174"><path d="M50,100h0A50,50,0,0,1,0,50V0H100V50A50,50,0,0,1,50,100Z" fill="#941A1A"/></svg></g><g transform="translate(496.50,&#10;                                285.97) rotate(270, 29.82501587301587, 29.82501587301587)"><svg xmlns="http://www.w3.org/2000/svg" id="Layer_1" data-name="Layer 1" viewBox="0 0 100 100" width="59.65003174603174" height="59.65003174603174"><path d="M100,100A50,50,0,0,0,0,100Z" fill="#F2001C"/></svg></g><g transform="translate(426.32,&#10;                                356.15) rotate(180, 29.82501587301587, 29.82501587301587)"><svg xmlns="http://www.w3.org/2000/svg" id="Layer_1" data-name="Layer 1" viewBox="0 0 100 100" width="59.65003174603174" height="59.65003174603174"><path d="M100,100A50,50,0,0,0,0,100Z" fill="#F2001C"/></svg></g><g transform="translate(566.68,&#10;                                356.15) rotate(0, 29.82501587301587, 29.82501587301587)"><svg xmlns="http://www.w3.org/2000/svg" id="Layer_1" data-name="Layer 1" viewBox="0 0 100 100" width="59.65003174603174" height="59.65003174603174"><path d="M100,100A50,50,0,0,0,0,100Z" fill="#F2001C"/></svg></g><g transform="translate(636.85,&#10;                                356.15) rotate(270, 29.82501587301587, 29.82501587301587)"><svg xmlns="http://www.w3.org/2000/svg" id="Layer_1" data-name="Layer 1" viewBox="0 0 100 100" width="59.65003174603174" height="59.65003174603174"><path d="M50,100a50,50,0,1,1,50-50v50Z" fill="#5E5C57"/></svg></g><g transform="translate(777.20,&#10;                                285.97) rotate(180, 29.82501587301587, 29.82501587301587)"><svg xmlns="http://www.w3.org/2000/svg" id="Layer_1" data-name="Layer 1" viewBox="0 0 100 100" width="59.65003174603174" height="59.65003174603174"><path d="M50,100a50,50,0,1,1,50-50v50Z" fill="#5E5C57"/></svg></g><g transform="translate(707.03,&#10;                                356.15) rotate(270, 29.82501587301587, 29.82501587301587)"><svg xmlns="http://www.w3.org/2000/svg" id="Layer_1" data-name="Layer 1" viewBox="0 0 100 100" width="59.65003174603174" height="59.65003174603174"><path d="M100,100A50,50,0,0,0,0,100Z" fill="#F2001C"/></svg></g><g transform="translate(847.38,&#10;                                285.97) rotate(270, 29.82501587301587, 29.82501587301587)"><svg xmlns="http://www.w3.org/2000/svg" id="Layer_1" data-name="Layer 1" viewBox="0 0 100 100" width="59.65003174603174" height="59.65003174603174"><path d="M100,100A50,50,0,0,0,0,100Z" fill="#F2001C"/></svg></g><g transform="translate(917.56,&#10;                                285.97) rotate(90, 29.82501587301587, 29.82501587301587)"><svg xmlns="http://www.w3.org/2000/svg" id="Layer_1" data-name="Layer 1" viewBox="0 0 100 100" width="59.65003174603174" height="59.65003174603174"><path d="M50,100a50,50,0,1,1,50-50v50Z" fill="#5E5C57"/></svg></g></g><g><g transform="translate(5.26,&#10;                                426.32) rotate(180, 29.82501587301587, 29.82501587301587)"><svg xmlns="http://www.w3.org/2000/svg" id="Layer_1" data-name="Layer 1" viewBox="0 0 100 100" width="59.65003174603174" height="59.65003174603174"><circle cx="50" cy="50" r="50" fill="#941A1A"/></svg></g><g transform="translate(145.62,&#10;                                426.32) rotate(0, 29.82501587301587, 29.82501587301587)"><svg xmlns="http://www.w3.org/2000/svg" id="Layer_1" data-name="Layer 1" viewBox="0 0 100 100" width="59.65003174603174" height="59.65003174603174"><path d="M50,100a50,50,0,1,1,50-50v50Z" fill="#5E5C57"/></svg></g><g transform="translate(215.79,&#10;                                426.32) rotate(270, 29.82501587301587, 29.82501587301587)"><svg xmlns="http://www.w3.org/2000/svg" id="Layer_1" data-name="Layer 1" viewBox="0 0 100 100" width="59.65003174603174" height="59.65003174603174"><path d="M50,100a50,50,0,1,1,50-50v50Z" fill="#5E5C57"/></svg></g><g transform="translate(285.97,&#10;                                426.32) rotate(0, 29.82501587301587, 29.82501587301587)"><svg xmlns="http://www.w3.org/2000/svg" id="Layer_1" data-name="Layer 1" viewBox="0 0 100 100" width="59.65003174603174" height="59.65003174603174"><path d="M50,100a50,50,0,1,1,50-50v50Z" fill="#5E5C57"/></svg></g><g transform="translate(285.97,&#10;                                496.50) rotate(0, 29.82501587301587, 29.82501587301587)"><svg xmlns="http://www.w3.org/2000/svg" id="Layer_1" data-name="Layer 1" viewBox="0 0 100 100" width="59.65003174603174" height="59.65003174603174"><circle cx="50" cy="50" r="50" fill="#941A1A"/></svg></g><g transform="translate(566.68,&#10;                                426.32) rotate(270, 29.82501587301587, 29.82501587301587)"><svg xmlns="http://www.w3.org/2000/svg" id="Layer_1" data-name="Layer 1" viewBox="0 0 100 100" width="59.65003174603174" height="59.65003174603174"><path d="M100,100A50,50,0,0,0,0,100Z" fill="#F2001C"/></svg></g><g transform="translate(636.85,&#10;                                426.32) rotate(0, 29.82501587301587, 29.82501587301587)"><svg xmlns="http://www.w3.org/2000/svg" id="Layer_1" data-name="Layer 1" viewBox="0 0 100 100" width="59.65003174603174" height="59.65003174603174"><path d="M50,100a50,50,0,1,1,50-50v50Z" fill="#5E5C57"/></svg></g><g transform="translate(636.85,&#10;                                496.50) rotate(270, 29.82501587301587, 29.82501587301587)"><svg xmlns="http://www.w3.org/2000/svg" id="Layer_1" data-name="Layer 1" viewBox="0 0 100 100" width="59.65003174603174" height="59.65003174603174"><path d="M50,100a50,50,0,1,1,50-50v50Z" fill="#5E5C57"/></svg></g><g transform="translate(707.03,&#10;                                426.32) rotate(90, 29.82501587301587, 29.82501587301587)"><svg xmlns="http://www.w3.org/2000/svg" id="Layer_1" data-name="Layer 1" viewBox="0 0 100 100" width="59.65003174603174" height="59.65003174603174"><path d="M100,100A50,50,0,0,0,0,100Z" fill="#F2001C"/></svg></g><g transform="translate(777.20,&#10;                                426.32) rotate(90, 29.82501587301587, 29.82501587301587)"><svg xmlns="http://www.w3.org/2000/svg" id="Layer_1" data-name="Layer 1" viewBox="0 0 100 100" width="59.65003174603174" height="59.65003174603174"><path d="M50,100a50,50,0,1,1,50-50v50Z" fill="#5E5C57"/></svg></g><g transform="translate(847.38,&#10;                                426.32) rotate(0, 29.82501587301587, 29.82501587301587)"><svg xmlns="http://www.w3.org/2000/svg" id="Layer_1" data-name="Layer 1" viewBox="0 0 100 100" width="59.65003174603174" height="59.65003174603174"><circle cx="50" cy="50" r="50" fill="#941A1A"/></svg></g><g transform="translate(917.56,&#10;                                426.32) rotate(0, 29.82501587301587, 29.82501587301587)"><svg xmlns="http://www.w3.org/2000/svg" id="Layer_1" data-name="Layer 1" viewBox="0 0 100 100" width="59.65003174603174" height="59.65003174603174"><path d="M100,100A50,50,0,0,0,0,100Z" fill="#F2001C"/></svg></g><g transform="translate(847.38,&#10;                                496.50) rotate(90, 29.82501587301587, 29.82501587301587)"><svg xmlns="http://www.w3.org/2000/svg" id="Layer_1" data-name="Layer 1" viewBox="0 0 100 100" width="59.65003174603174" height="59.65003174603174"><path d="M50,100h0A50,50,0,0,1,0,50V0H100V50A50,50,0,0,1,50,100Z" fill="#941A1A"/></svg></g><g transform="translate(917.56,&#10;                                496.50) rotate(270, 29.82501587301587, 29.82501587301587)"><svg xmlns="http://www.w3.org/2000/svg" id="Layer_1" data-name="Layer 1" viewBox="0 0 100 100" width="59.65003174603174" height="59.65003174603174"><path d="M50,100h0A50,50,0,0,1,0,50V0H100V50A50,50,0,0,1,50,100Z" fill="#941A1A"/></svg></g></g></svg>